<svg width="18" height="18" viewBox="0 0 18 18" fill="none" xmlns="http://www.w3.org/2000/svg">
<circle cx="9" cy="9" r="9" fill="#D2D2D2"/>
<path d="M9.99275 6.792V15H8.00875V6.792H9.99275ZM10.2648 4.4C10.2648 4.57067 10.2301 4.73067 10.1608 4.88C10.0914 5.02933 9.99808 5.16 9.88075 5.272C9.76875 5.384 9.63542 5.47467 9.48075 5.544C9.32608 5.608 9.16075 5.64 8.98475 5.64C8.81408 5.64 8.65142 5.608 8.49675 5.544C8.34742 5.47467 8.21675 5.384 8.10475 5.272C7.99275 5.16 7.90208 5.02933 7.83275 4.88C7.76875 4.73067 7.73675 4.57067 7.73675 4.4C7.73675 4.224 7.76875 4.05867 7.83275 3.904C7.90208 3.74933 7.99275 3.616 8.10475 3.504C8.21675 3.392 8.34742 3.304 8.49675 3.24C8.65142 3.17067 8.81408 3.136 8.98475 3.136C9.16075 3.136 9.32608 3.17067 9.48075 3.24C9.63542 3.304 9.76875 3.392 9.88075 3.504C9.99808 3.616 10.0914 3.74933 10.1608 3.904C10.2301 4.05867 10.2648 4.224 10.2648 4.4Z" fill="black"/>
</svg>
